<svg width="140" height="70" viewBox="0 0 140 70" fill="none" xmlns="http://www.w3.org/2000/svg">
<g clip-path="url(#clip0_277_1176)">
<path d="M136.881 42.6872V26.9603H139.636V42.7101H136.881V42.6872Z" fill="#F47521"/>
<path d="M130.94 42.6872V26.9603H133.694V42.7101H130.94V42.6872Z" fill="#F47521"/>
<path d="M128.618 37.0182C128.618 40.8128 126.728 42.8472 123.245 42.8472C119.762 42.8472 117.873 40.8128 117.873 37.0182C117.873 33.2236 119.762 31.1892 123.245 31.1892C126.728 31.1892 128.618 33.2236 128.618 37.0182ZM126 37.0182C126 33.9551 124.975 33.3837 123.382 33.3837C121.788 33.3837 120.764 33.9551 120.764 37.0182C120.764 40.0813 121.788 40.6528 123.382 40.6528C124.839 40.6528 126 40.0813 126 37.0182Z" fill="#F47521"/>
<path d="M116.712 31.1892V33.5208C115.255 33.5208 113.525 33.5208 113.525 34.2523V42.7101H110.771V32.6522C110.907 30.8921 116.712 31.1892 116.712 31.1892Z" fill="#F47521"/>
<path d="M100.163 47.2133C102.212 42.1158 102.052 42.5501 102.212 42.1158L98.1367 31.3264H101.051L103.668 39.1899L106.127 31.3264H109.041L104.693 42.9844L103.099 47.2133H100.163V47.2133Z" fill="#F47521"/>
<path d="M96.543 35.8524V42.7101H93.7885V35.6924C93.7885 34.6638 93.4926 33.658 91.034 33.658C90.3966 33.6808 89.7592 33.7723 89.1446 33.9551V42.7101H86.3901V26.9603H89.1446V31.4864C89.8731 31.1664 90.6698 31.0292 91.4666 31.0521C94.7901 31.1892 96.543 32.9265 96.543 35.8524Z" fill="#F47521"/>
<path d="M81.3137 40.5157C82.3153 40.47 83.2942 40.2871 84.2275 39.9214V42.253C83.1576 42.6873 82.0421 42.8702 80.8811 42.8245C77.3982 42.8245 75.5088 40.79 75.5088 36.9955C75.5088 33.2009 77.3982 31.0293 80.8811 31.0293C82.0194 31.075 83.1348 31.2579 84.2275 31.6236V33.9552C83.2942 33.5895 82.3153 33.4066 81.3137 33.3838C79.4242 33.3838 78.2633 33.9552 78.2633 36.8812C78.2633 39.9214 79.4242 40.5157 81.3137 40.5157Z" fill="#F47521"/>
<path d="M73.7563 35.5553V42.6873H71.1384V35.5553C71.1384 34.5267 71.1384 33.5209 68.8164 33.5209C68.088 33.5209 66.6311 33.6581 66.6311 34.0924V42.6873H64.0132V33.2237C64.0132 31.3265 66.3351 31.0293 69.2262 31.0293C72.1628 31.1893 73.7563 32.3551 73.7563 35.5553Z" fill="#F47521"/>
<path d="M61.4181 31.3264V37.5897C61.4181 40.95 60.2571 42.9844 56.3417 42.9844C52.4262 42.9844 51.4019 40.95 51.4019 37.5897V31.3264H54.0197V37.8869C54.0197 39.7842 54.7482 40.3557 56.3417 40.3557C57.9352 40.3557 58.6636 39.7842 58.6636 37.8869V31.3264H61.4181Z" fill="#F47521"/>
<path d="M49.2388 31.1892V33.5208C47.7819 33.5208 46.0518 33.5208 46.0518 34.2523V42.7101H43.2974V32.6522C43.4339 30.8921 49.2388 31.1892 49.2388 31.1892Z" fill="#F47521"/>
<path d="M37.9022 40.5157C38.8583 40.4929 39.7916 40.2871 40.6567 39.9214V42.253C39.5868 42.6873 38.4713 42.8702 37.3103 42.8245C33.8274 42.8245 31.938 40.79 31.938 36.9955C31.938 33.2009 33.8274 31.0293 37.3103 31.0293C38.4486 31.075 39.564 31.2579 40.6567 31.6236V33.9552C39.7689 33.6123 38.8356 33.4066 37.9022 33.3838C36.0128 33.3838 34.8518 33.9552 34.8518 36.8812C34.7152 39.9214 36.0355 40.5157 37.9022 40.5157Z" fill="#F47521"/>
<path d="M3.5286 37.0182C3.5286 30.6406 8.67332 25.4974 15.0245 25.4974C21.0115 25.5202 25.9741 30.1377 26.4522 36.1268V35.3953C26.4522 28.149 20.6018 22.2743 13.3855 22.2743C6.16925 22.2743 0.318848 28.1719 0.318848 35.4181C0.318848 42.6644 6.16925 48.5162 13.3855 48.5162H14.2506C8.2408 48.1048 3.55137 43.0758 3.5286 37.0182Z" fill="#F47521"/>
<path d="M21.2165 37.5897C18.8945 37.5897 17.0279 35.7153 17.0051 33.4065C17.0051 31.6235 18.0978 30.0463 19.7596 29.4291C18.462 28.7433 17.0279 28.3776 15.5482 28.4004C10.4945 28.4004 6.39697 32.515 6.39697 37.5897C6.39697 42.6643 10.4945 46.7789 15.5482 46.7789C20.6019 46.7789 24.6994 42.6643 24.6994 37.5897C24.7222 36.9954 24.6766 36.4239 24.5628 35.8296C23.8571 36.9954 22.5596 37.6583 21.2165 37.5897Z" fill="#F47521"/>
</g>
<defs>
<clipPath id="clip0_277_1176">
<rect width="140" height="26.722" fill="white" transform="translate(0 22)"/>
</clipPath>
</defs>
</svg>
